<svg width="126" height="90" viewBox="0 0 126 90" fill="none" xmlns="http://www.w3.org/2000/svg">
<g opacity="0.4">
<path d="M42 8C42 6.89543 42.8954 6 44 6H67L84 23V56C84 57.1046 83.1046 58 82 58H44C42.8954 58 42 57.1046 42 56V8Z" fill="url(#paint0_linear_1_350)"/>
<path d="M43 8C43 7.44772 43.4477 7 44 7H66.5858L83 23.4142V56C83 56.5523 82.5523 57 82 57H44C43.4477 57 43 56.5523 43 56V8Z" stroke="#CDF9FF" stroke-opacity="0.15" stroke-width="2"/>
<path d="M67 6L84 23H67L67 6Z" fill="url(#paint1_linear_1_350)"/>
<rect opacity="0.4" x="48" y="37" width="13" height="3" rx="1.5" fill="#8E92B4"/>
<rect opacity="0.4" x="48" y="44" width="17" height="3" rx="1.5" fill="#8E92B4"/>
</g>
<path d="M1.764 73.786C2.73 74.514 3.542 75.228 4.2 75.956L3.472 76.67C2.898 75.984 2.1 75.242 1.078 74.444L1.764 73.786ZM9.898 86.148C9.142 86.148 8.33 86.134 7.448 86.12C6.566 86.106 5.838 86.022 5.278 85.868C4.746 85.7 4.256 85.35 3.822 84.846C3.64 84.608 3.458 84.496 3.29 84.496C2.954 84.496 2.408 85.14 1.638 86.428L0.882 85.742C1.624 84.566 2.282 83.852 2.856 83.6V79.344H0.854V78.42H3.794V83.67C3.906 83.754 4.004 83.852 4.116 83.978C4.452 84.384 4.802 84.678 5.194 84.86C5.614 85.056 6.244 85.168 7.056 85.196C7.784 85.21 8.68 85.224 9.758 85.224C10.43 85.224 11.102 85.21 11.788 85.196C12.474 85.182 13.006 85.168 13.37 85.14L13.132 86.148H9.898ZM4.83 74.318H12.908V75.298H9.73C9.562 75.718 9.394 76.138 9.198 76.544V84.44H8.19V78.252C7.322 79.456 6.23 80.548 4.928 81.5L4.298 80.674C6.398 79.19 7.882 77.398 8.722 75.298H4.83V74.318ZM10.374 76.936C11.676 78.448 12.684 79.764 13.384 80.898L12.53 81.486C11.774 80.226 10.794 78.896 9.604 77.496L10.374 76.936ZM15.736 73.772C16.716 74.472 17.528 75.172 18.2 75.872L17.486 76.586C16.884 75.914 16.058 75.214 15.022 74.472L15.736 73.772ZM15.344 77.132C16.268 77.832 17.038 78.518 17.668 79.218L16.94 79.932C16.38 79.274 15.61 78.574 14.63 77.832L15.344 77.132ZM17.08 80.94L17.99 81.304C17.346 83.04 16.646 84.678 15.862 86.218L14.854 85.784C15.708 84.202 16.45 82.592 17.08 80.94ZM19.726 80.618H18.844V79.652H26.236V80.576C25.676 81.892 24.808 83.026 23.618 83.978C24.682 84.678 25.998 85.21 27.538 85.574L27.034 86.484C25.326 86.022 23.912 85.392 22.792 84.58C21.63 85.336 20.244 85.952 18.634 86.442L18.13 85.518C19.642 85.112 20.916 84.594 21.98 83.95C20.93 83.026 20.174 81.906 19.726 80.618ZM22.806 83.39C23.856 82.606 24.626 81.682 25.116 80.618H20.706C21.182 81.696 21.882 82.62 22.806 83.39ZM20.16 74.108H25.116V77.16C25.116 77.468 25.284 77.636 25.634 77.636H27.23V78.588H25.382C24.542 78.588 24.122 78.182 24.122 77.384V75.06H21.168V75.718C21.168 77.216 20.412 78.364 18.928 79.176L18.256 78.406C19.516 77.804 20.16 76.95 20.16 75.83V74.108ZM32.9 78.602V80.128H38.458V78.602H32.9ZM38.458 81.01H32.9V82.494H38.458V81.01ZM38.458 83.376H32.9V86.372H31.948V79.05C31.164 80.03 30.254 80.94 29.246 81.752L28.588 80.898C30.352 79.498 31.71 77.902 32.676 76.096H28.966V75.116H33.138C33.376 74.57 33.586 74.024 33.754 73.478L34.776 73.604C34.608 74.122 34.44 74.626 34.244 75.116H41.202V76.096H33.824C33.544 76.656 33.25 77.202 32.914 77.72H39.41V85.28C39.41 85.966 39.018 86.316 38.234 86.344H36.666L36.414 85.42C36.946 85.448 37.45 85.476 37.912 85.476C38.276 85.476 38.458 85.308 38.458 84.972V83.376ZM42.896 75.928H48.692C48.314 75.186 47.852 74.486 47.292 73.828L48.3 73.464C48.832 74.136 49.308 74.962 49.756 75.928H55.104V76.936H52.92C52.234 79.148 51.198 81.01 49.826 82.494C51.31 83.754 53.172 84.79 55.412 85.616L54.866 86.456C52.542 85.588 50.638 84.51 49.126 83.208C47.53 84.678 45.542 85.756 43.162 86.442L42.63 85.56C44.982 84.93 46.914 83.936 48.426 82.564C46.802 80.968 45.682 79.092 45.052 76.936H42.896V75.928ZM46.046 76.936C46.648 78.826 47.67 80.464 49.126 81.864C50.372 80.506 51.282 78.868 51.87 76.936H46.046ZM59.668 73.478L60.62 73.912C60.256 75.018 59.794 76.068 59.234 77.062V86.414H58.24V78.602C57.792 79.218 57.302 79.806 56.77 80.366L56.448 79.288C57.932 77.608 58.996 75.662 59.668 73.478ZM62.02 74.402L63.014 74.528C62.902 75.228 62.748 75.9 62.552 76.516H64.61V73.604H65.618V76.516H68.838V77.496H65.618V80.87H69.356V81.836H65.618V86.344H64.61V81.836H60.494V80.87H64.61V77.496H62.23C61.88 78.42 61.446 79.246 60.928 79.974L60.284 79.134C61.138 77.846 61.712 76.264 62.02 74.402ZM73.374 73.548L74.368 73.716C74.242 74.416 74.102 75.074 73.934 75.718H77.07V76.614C76.692 79.064 75.978 81.122 74.914 82.774C75.25 83.292 75.6 83.684 75.992 83.964C77.084 84.734 78.82 85.126 81.186 85.154C81.914 85.154 82.642 85.126 83.398 85.084L83.202 86.134H81.662C78.778 86.134 76.692 85.644 75.404 84.692C75.012 84.398 74.662 84.02 74.34 83.572C73.472 84.664 72.464 85.56 71.288 86.26L70.742 85.308C71.946 84.608 72.954 83.698 73.752 82.592C73.29 81.71 72.884 80.632 72.534 79.358C72.17 80.016 71.764 80.604 71.344 81.122L70.658 80.268C72.002 78.602 72.898 76.362 73.374 73.548ZM73.122 78.14C73.486 79.582 73.878 80.772 74.326 81.71C75.152 80.296 75.74 78.616 76.076 76.684H73.654C73.486 77.202 73.304 77.692 73.122 78.14ZM78.946 73.632H79.968V77.188C81.116 78.014 82.278 78.966 83.468 80.044L82.866 80.94C81.732 79.792 80.766 78.882 79.968 78.238V84.062H78.946V73.632ZM89.824 74.122H96.67V80.59H93.758V82.242H96.908V83.194H93.758V85.014H97.426V85.98H88.998V85.014H92.75V83.194H89.586V82.242H92.75V80.59H89.824V74.122ZM95.704 79.694V77.804H93.758V79.694H95.704ZM92.75 79.694V77.804H90.79V79.694H92.75ZM90.79 76.922H92.75V75.018H90.79V76.922ZM93.758 75.018V76.922H95.704V75.018H93.758ZM84.882 78.756H86.408V75.438H84.686V74.486H89.152V75.438H87.444V78.756H88.984V79.722H87.444V82.9C87.976 82.718 88.48 82.522 88.984 82.298V83.278C87.696 83.81 86.31 84.258 84.826 84.622L84.574 83.656C85.19 83.544 85.806 83.404 86.408 83.236V79.722H84.882V78.756ZM111.524 82.508C111.398 83.936 111.202 84.874 110.936 85.308C110.67 85.728 110.138 85.952 109.354 85.952H105.728C104.86 85.952 104.426 85.504 104.426 84.608V78.49H109.41V75.228H103.754V74.248H110.376V79.456H105.406V84.244C105.406 84.72 105.644 84.972 106.12 84.986H109.172C109.718 84.986 110.068 84.79 110.222 84.412C110.362 84.034 110.46 83.292 110.53 82.172L111.524 82.508ZM100.268 73.702C101.22 74.416 102.018 75.13 102.662 75.858L101.976 76.558C101.388 75.872 100.576 75.144 99.568 74.388L100.268 73.702ZM98.63 77.846H101.654V84.146C102.2 83.726 102.788 83.222 103.404 82.662L103.656 83.726C102.76 84.538 101.794 85.252 100.786 85.896L100.394 84.986C100.59 84.818 100.688 84.622 100.688 84.398V78.812H98.63V77.846ZM114.408 74.094H122.486V78.644H125.006V79.554H119.42V81.15C119.756 81.542 120.106 81.906 120.498 82.256C121.492 81.696 122.36 80.898 123.088 79.862L123.858 80.506C123.074 81.514 122.192 82.284 121.184 82.816C122.276 83.67 123.564 84.426 125.048 85.07L124.544 85.966C122.388 84.958 120.68 83.726 119.42 82.27V85.154C119.42 85.994 119.042 86.414 118.314 86.414H116.704L116.494 85.462C117.012 85.504 117.502 85.532 117.978 85.532C118.258 85.532 118.412 85.322 118.412 84.916V82.354C116.97 83.67 115.248 84.846 113.26 85.91L112.854 84.972C115.01 83.95 116.858 82.732 118.412 81.304V79.554H113.008V78.644H121.464V77.286H114.884V76.404H121.464V75.004H114.408V74.094ZM114.52 80.086C115.374 80.674 116.088 81.276 116.662 81.864L116.018 82.522C115.486 81.962 114.772 81.36 113.848 80.73L114.52 80.086Z" fill="#E1EEFF" fill-opacity="0.4"/>
<defs>
<linearGradient id="paint0_linear_1_350" x1="63" y1="6" x2="63" y2="58" gradientUnits="userSpaceOnUse">
<stop stop-color="#4B4F74"/>
<stop offset="1" stop-color="#4B4F74"/>
</linearGradient>
<linearGradient id="paint1_linear_1_350" x1="75" y1="13" x2="66" y2="23" gradientUnits="userSpaceOnUse">
<stop stop-color="#9195BE"/>
<stop offset="1" stop-color="#BABDD7"/>
</linearGradient>
</defs>
</svg>
