<svg width="126" height="101" viewBox="0 0 126 101" fill="none" xmlns="http://www.w3.org/2000/svg">
<g clip-path="url(#clip0_596_6)">
<path d="M32.0208 38.5371C38.5868 31.4501 45.1488 24.3621 51.7148 17.2751C52.3628 16.5741 53.3348 16.5521 54.2378 16.8241C68.2478 15.3401 82.3888 15.5481 96.3428 17.5391C97.2248 17.6661 98.1428 18.0391 98.9228 18.5891C99.4828 18.6671 100.017 18.8291 100.308 18.9631C101.764 19.6261 103.05 20.9541 103.065 22.5971L103.692 96.9701C104.011 97.6321 104.071 98.2701 103.706 98.7041C103.706 98.8661 103.71 99.0281 103.71 99.1901C103.724 100.843 101.056 100.237 100.241 99.8631C99.9382 99.7185 99.6488 99.5479 99.3758 99.3531C88.9338 99.7051 78.4878 100.061 68.0458 100.413L51.5838 100.97C48.8408 101.062 46.0948 101.157 43.3528 101.248C41.0628 101.326 38.9448 101.513 36.8608 100.413C32.3048 98.0101 32.9598 93.3931 32.8708 88.9911C32.7608 83.5881 32.6548 78.1891 32.5448 72.7861L31.8858 40.0351C31.6528 39.5031 31.6238 38.9671 32.0208 38.5371ZM38.0938 42.2551L36.5668 43.1151C44.5748 43.9011 52.6148 43.8911 60.6158 43.1051C58.8858 35.8661 57.9788 30.9451 54.7898 24.2281C49.2238 30.2411 43.6568 36.2461 38.0938 42.2551ZM38.9768 86.1651L39.1148 93.1111C39.1178 93.3681 39.3238 95.0881 39.3198 96.0961C39.6498 96.0861 39.9758 96.0751 40.3048 96.0611L97.4628 94.1261C97.2608 70.2521 97.0628 46.3761 96.8598 22.5011C84.365 20.8543 71.7229 20.6416 59.1798 21.8671C61.9048 28.2251 65.1578 37.1841 67.2168 46.4251C67.3968 47.2281 66.8798 48.0291 66.0328 48.1241C57.0468 49.1241 47.9728 49.2091 38.9768 48.3211C38.1828 48.2431 37.3638 47.9301 36.6488 47.4611C36.7938 54.6511 38.5258 63.9231 38.6688 71.1121C38.7748 76.1341 38.8738 81.1491 38.9768 86.1651Z" fill="#292947"/>
<path d="M113.422 8.38526C113.483 6.45226 113.626 2.73426 113.321 2.64826C113.016 2.56226 111.536 5.62826 110.615 7.35026C109.719 9.03226 106.465 8.29026 106.259 8.87726C106.165 9.14726 108.242 10.3783 108.566 12.2773C108.938 14.4893 108.143 17.9973 108.51 18.1403C108.868 18.2773 110.096 15.2543 111.95 13.6813C113.682 12.2073 116.051 12.1953 116.132 11.9663C116.307 11.4863 113.361 10.2863 113.422 8.38526Z" stroke="#292947" stroke-width="2"/>
<path d="M118.498 25.1328C118.195 23.2228 117.637 19.5438 117.321 19.5168C117.005 19.4898 116.127 22.7798 115.547 24.6438C114.983 26.4638 111.647 26.3458 111.554 26.9618C111.513 27.2438 113.785 28.0638 114.459 29.8668C115.24 31.9708 115.118 35.5668 115.505 35.6368C115.883 35.7038 116.521 32.5048 118.047 30.6108C119.472 28.8388 121.796 28.3808 121.832 28.1408C121.915 27.6378 118.795 27.0128 118.498 25.1328ZM9.77997 38.9788C9.47797 37.0688 8.91997 33.3888 8.60397 33.3628C8.28797 33.3358 7.40997 36.6258 6.82897 38.4888C6.26497 40.3088 2.92897 40.1918 2.83697 40.8078C2.79597 41.0898 5.06697 41.9098 5.74197 43.7128C6.52197 45.8158 6.40097 49.4118 6.78797 49.4828C7.16497 49.5498 7.80397 46.3508 9.32997 44.4568C10.754 42.6838 13.078 42.2268 13.115 41.9868C13.197 41.4838 10.078 40.8578 9.77997 38.9788Z" fill="#292947"/>
</g>
<defs>
<clipPath id="clip0_596_6">
<rect width="126" height="101" fill="white"/>
</clipPath>
</defs>
</svg>
