<svg width="144" height="28" viewBox="0 0 144 28" fill="none" xmlns="http://www.w3.org/2000/svg">
<g clip-path="url(#clip0_1_600)">
<path d="M2.42383 6.80304V9.83334H5.45414" stroke="#E1EEFF" stroke-width="1.66667" stroke-linecap="round" stroke-linejoin="round"/>
<path d="M1.66602 14C1.66602 18.6024 5.39697 22.3334 9.99935 22.3334C14.6017 22.3334 18.3327 18.6024 18.3327 14C18.3327 9.39765 14.6017 5.66669 9.99935 5.66669C6.91518 5.66669 4.22231 7.34215 2.78134 9.83256" stroke="#E1EEFF" stroke-width="1.66667" stroke-linecap="round" stroke-linejoin="round"/>
<path d="M10.0005 9L10 14.0037L13.5331 17.5368" stroke="#E1EEFF" stroke-width="1.66667" stroke-linecap="round" stroke-linejoin="round"/>
</g>
<path d="M25.18 7.82H33.24C32.72 6.86 32.08 5.96 31.32 5.1L33.22 4.4C33.94 5.36 34.62 6.5 35.24 7.82H42.82V9.7H39.76C38.8 12.74 37.38 15.28 35.5 17.34C37.58 19.04 40.18 20.46 43.26 21.58L42.2 23.18C38.98 21.98 36.3 20.48 34.18 18.68C31.92 20.68 29.14 22.16 25.84 23.12L24.82 21.44C28.06 20.6 30.72 19.28 32.84 17.46C30.64 15.26 29.1 12.66 28.24 9.7H25.18V7.82ZM30.06 9.7C30.9 12.16 32.26 14.32 34.16 16.16C35.78 14.38 37 12.22 37.8 9.7H30.06ZM49.02 4.44L50.8 5.26C50.3 6.84 49.64 8.34 48.84 9.74V23.06H46.98V12.5C46.42 13.22 45.82 13.9 45.2 14.56L44.58 12.54C46.58 10.22 48.06 7.52 49.02 4.44ZM52.38 5.88L54.24 6.12C54.08 7.02 53.9 7.88 53.68 8.68H56.08V4.68H57.98V8.68H62.4V10.54H57.98V14.84H63.14V16.68H57.98V22.98H56.08V16.68H50.4V14.84H56.08V10.54H53.06C52.56 11.8 51.96 12.94 51.24 13.98L50.02 12.4C51.18 10.62 51.98 8.44 52.38 5.88ZM68.6 4.6L70.46 4.92C70.3 5.84 70.12 6.7 69.92 7.52H74.32V9.22C73.84 12.66 72.86 15.52 71.38 17.84C71.78 18.44 72.2 18.9 72.64 19.22C74.12 20.28 76.48 20.84 79.72 20.88C80.86 20.88 82.02 20.82 83.22 20.74L82.84 22.72H80.62C76.42 22.72 73.4 22.02 71.56 20.62C71.1 20.26 70.68 19.84 70.3 19.34C69.1 20.8 67.66 21.98 66 22.9L64.98 21.1C66.64 20.18 68.04 18.98 69.16 17.5C68.58 16.36 68.06 15.02 67.6 13.46C67.12 14.26 66.6 15 66.06 15.64L64.76 14.02C66.66 11.68 67.94 8.54 68.6 4.6ZM68.7 11.22C69.18 13.06 69.7 14.58 70.26 15.82C71.3 13.98 72.02 11.82 72.46 9.34H69.4C69.18 10 68.94 10.62 68.7 11.22ZM76.56 4.7H78.46V9.76C80.06 10.92 81.7 12.22 83.38 13.68L82.24 15.38C80.76 13.86 79.5 12.64 78.46 11.76V19.52H76.56V4.7ZM92.14 5.28H102.26V14.84H98.16V16.84H102.52V18.6H98.16V20.68H103.22V22.5H91.12V20.68H96.28V18.6H91.9V16.84H96.28V14.84H92.14V5.28ZM100.44 13.16V10.88H98.16V13.16H100.44ZM96.28 13.16V10.88H93.96V13.16H96.28ZM93.96 9.24H96.28V6.96H93.96V9.24ZM98.16 6.96V9.24H100.44V6.96H98.16ZM85.24 11.86H87.22V7.58H84.94V5.78H91.4V7.58H89.14V11.86H91.16V13.68H89.14V17.68C89.82 17.44 90.48 17.2 91.12 16.92V18.76C89.28 19.48 87.32 20.1 85.22 20.6L84.76 18.78C85.6 18.64 86.42 18.46 87.22 18.26V13.68H85.24V11.86ZM123.46 17.46C123.26 19.5 122.96 20.86 122.56 21.5C122.18 22.1 121.38 22.42 120.16 22.42H114.94C113.64 22.42 113 21.74 113 20.42V11.44H120.06V7.26H112.16V5.42H121.88V13.26H114.86V19.68C114.86 20.28 115.16 20.58 115.76 20.62H119.82C120.54 20.62 121 20.34 121.18 19.82C121.34 19.3 121.48 18.3 121.56 16.82L123.46 17.46ZM107.46 4.76C108.76 5.74 109.86 6.72 110.76 7.72L109.46 9.04C108.66 8.1 107.56 7.1 106.14 6.06L107.46 4.76ZM104.82 10.56H109.44V19.18C110.12 18.62 110.86 18 111.62 17.3L112.12 19.3C110.78 20.48 109.36 21.54 107.84 22.46L107.12 20.76C107.44 20.48 107.62 20.14 107.62 19.74V12.38H104.82V10.56ZM127.38 5.24H139.2V11.7H142.64V13.44H134.82V15.48C135.24 15.94 135.68 16.38 136.16 16.8C137.5 16.04 138.66 14.96 139.62 13.54L141.08 14.76C140.02 16.08 138.82 17.12 137.46 17.86C138.98 18.98 140.72 19.96 142.72 20.82L141.76 22.5C138.88 21.14 136.58 19.5 134.82 17.58V21.04C134.82 22.4 134.22 23.08 133.06 23.08H130.74L130.32 21.28C131.06 21.36 131.76 21.42 132.42 21.42C132.76 21.42 132.94 21.14 132.94 20.6V17.68C130.94 19.44 128.58 21.02 125.86 22.44L125.1 20.68C128.12 19.3 130.74 17.64 132.94 15.7V13.44H125.38V11.7H137.26V10.16H128.06V8.52H137.26V6.94H127.38V5.24ZM127.78 13.86C128.96 14.68 129.96 15.5 130.76 16.3L129.52 17.54C128.8 16.78 127.8 15.96 126.52 15.08L127.78 13.86Z" fill="#E1EEFF"/>
<defs>
<clipPath id="clip0_1_600">
<rect width="20" height="20" fill="white" transform="translate(0 4)"/>
</clipPath>
</defs>
</svg>
