<svg width="136" height="129" viewBox="0 0 136 129" fill="none" xmlns="http://www.w3.org/2000/svg">
<g clip-path="url(#clip0_1_53)">
<path d="M91.8728 0L101.855 27.6222L120.104 42.7307L101.855 57.8375L91.8728 85.4596L81.8923 57.8375L63.6434 42.7307L81.8923 27.6222L91.8728 0Z" fill="#2FFFA8"/>
<path d="M59.2461 53.2654C61.9597 52.3824 64.6574 51.578 67.3272 50.845L62.2205 46.6168C60.4926 47.1159 58.7542 47.6464 57.0088 48.2135C24.6286 58.7431 1.19425 77.4952 1.48311 91.7975C7.32506 78.3922 29.8718 62.816 59.2461 53.2654Z" fill="#127FFF"/>
<path d="M25.8223 107.869C13.2735 106.693 4.40119 102.433 2.07456 95.3207C1.70167 94.1829 1.5091 93.005 1.48459 91.7975C-0.0787495 95.387 -0.446388 98.8195 0.575997 101.941C3.17573 109.885 14.2381 114.183 29.6982 114.575L23.5989 109.661L25.8223 107.869Z" fill="#127FFF"/>
<path d="M135.427 58.094C134.188 54.309 131.026 51.3511 126.383 49.2501C127.703 50.6496 128.672 52.2254 129.244 53.9739C133.164 65.9501 117.315 82.2941 92.1055 94.0836L91.8744 94.7257L91.7098 94.2686C86.3003 96.7779 80.4671 99.0779 74.31 101.079C68.1967 103.067 62.1675 104.631 56.3535 105.781L61.1731 109.663L58.7852 111.588C64.6149 110.361 70.6442 108.759 76.7575 106.772C113.994 94.6612 140.261 72.8674 135.427 58.094Z" fill="#127FFF"/>
<path d="M42.3835 90.3231L47.0263 102.824L55.5117 109.662L47.0263 116.499L42.3835 129L37.7425 116.499L29.2571 109.662L37.7425 102.824L42.3835 90.3231Z" fill="#2FFFA8"/>
</g>
<defs>
<clipPath id="clip0_1_53">
<rect width="136" height="129" fill="white"/>
</clipPath>
</defs>
</svg>
