<svg width="397" height="48" viewBox="0 0 397 48" fill="none" xmlns="http://www.w3.org/2000/svg">
<path d="M25.5381 47.8584C23.5687 46.54 21.3063 45.1403 18.751 43.6592C19.0439 43.3174 19.4753 42.8128 20.0449 42.1455C20.4355 41.6735 20.7204 41.3317 20.8994 41.1201C16.2607 41.4782 12.387 41.8363 9.27832 42.1943C7.58561 42.3896 5.70573 42.8291 3.63867 43.5127L0.928711 36.8232C1.30306 36.4977 1.7181 35.9932 2.17383 35.3096C2.61328 34.6748 2.9388 34.1214 3.15039 33.6494C4.63151 30.1501 5.91732 26.3333 7.00781 22.1992H1.17285V15.4121H23.2188V22.1992H14.5518C12.6149 27.9284 11.0361 32.1846 9.81543 34.9678C11.1826 34.9352 13.3392 34.8213 16.2852 34.626C15.9596 33.6494 15.4632 32.1764 14.7959 30.207C14.1611 28.319 13.6891 26.9193 13.3799 26.0078L19.2637 24.0547C20.6797 27.668 22.2259 31.859 23.9023 36.6279C24.9766 34.512 25.7171 31.9323 26.124 28.8887C26.4984 26.1543 26.7425 22.0039 26.8564 16.4375H23.6582V9.40625H27.0029C27.0029 9.27604 27.0029 9.08073 27.0029 8.82031C27.068 5.38607 27.1087 2.62728 27.125 0.543945H34.2295C34.1969 1.50423 34.1562 2.92839 34.1074 4.81641C34.0586 6.86719 34.0179 8.39714 33.9854 9.40625H45.3867C45.2728 22.7363 45.11 32.6566 44.8984 39.167C44.8171 41.4294 44.3206 43.1221 43.4092 44.2451C42.4814 45.417 41.0166 46.0843 39.0146 46.2471C37.4033 46.4098 34.9701 46.4912 31.7148 46.4912C31.2266 43.6104 30.779 41.2992 30.3721 39.5576C29.3955 41.82 27.7842 44.5869 25.5381 47.8584ZM35.0596 38.9717C35.9385 38.9717 36.5732 38.7601 36.9639 38.3369C37.3382 37.93 37.5498 37.2627 37.5986 36.335C37.859 30.8174 37.9893 24.1849 37.9893 16.4375H33.8389C33.6924 22.1016 33.4076 26.5205 32.9844 29.6943C32.5124 33.21 31.7393 36.2861 30.665 38.9229C31.6579 38.9554 33.1227 38.9717 35.0596 38.9717ZM3.39453 10.0898V3.22949H21.7783V10.0898H3.39453ZM54.249 47.8584C53.6794 46.4912 52.5238 44.1149 50.7822 40.7295C54.3955 38.6462 57.2601 36.5303 59.376 34.3818C58.8226 33.7959 57.9762 32.917 56.8369 31.7451C55.6976 30.5732 54.835 29.6862 54.249 29.084L58.8389 24.4453C59.9131 25.4544 61.4756 26.9355 63.5264 28.8887C64.5355 27.0169 65.4225 25.1126 66.1875 23.1758L72.1201 26.3984C70.7692 29.3281 69.5485 31.7288 68.458 33.6006C69.0765 34.2191 69.9798 35.1061 71.168 36.2617C72.5677 37.6126 73.5768 38.5973 74.1953 39.2158C76.6855 37.279 78.7607 35.3258 80.4209 33.3564C79.0863 30.8011 77.9876 27.7819 77.125 24.2988C76.5391 25.3242 76.0101 26.1706 75.5381 26.8379C75.4079 26.5286 75.1963 26.0322 74.9033 25.3486C74.3662 24.1442 73.9674 23.2409 73.707 22.6387L71.2412 25.373C68.7347 22.5085 66.2445 19.7741 63.7705 17.1699L68.4092 13.4102C70.5902 15.6237 72.112 17.1862 72.9746 18.0977C74.2767 15.7051 75.359 13.1579 76.2217 10.4561C77.068 7.80306 77.8737 4.5153 78.6387 0.592773L85.8652 1.61816C85.4583 3.48991 84.9456 5.5 84.3271 7.64844H96.7295V15.0215H93.873C93.3522 18.9277 92.7174 22.3132 91.9688 25.1777C91.1549 28.2539 90.1377 30.9964 88.917 33.4053C91.1468 35.9118 93.93 38.1253 97.2666 40.0459C96.0785 42.0479 94.695 44.4893 93.1162 47.3701C89.7145 44.8148 86.915 42.2594 84.7178 39.7041C82.3415 42.5361 79.3467 45.2542 75.7334 47.8584C74.1709 45.8076 72.8525 44.1637 71.7783 42.9268L69.6543 45.4658C69.3451 45.124 68.8649 44.5951 68.2139 43.8789C66.4398 41.9258 65.0889 40.4528 64.1611 39.46C61.7523 42.1618 58.4482 44.9613 54.249 47.8584ZM54.4932 27.375L50.4404 22.4434C52.8656 20.0508 55.2988 17.1048 57.7402 13.6055L62.8916 17.1211C60.3037 20.653 57.5042 24.071 54.4932 27.375ZM84.5713 26.5938C85.8571 23.6803 86.8092 19.8229 87.4277 15.0215H81.8125C81.8125 15.0703 81.7962 15.1273 81.7637 15.1924C81.7474 15.2249 81.7311 15.2493 81.7148 15.2656C82.2357 19.6276 83.1878 23.4036 84.5713 26.5938ZM51.9541 13.2637V6.42773H59.9619C59.9131 6.26497 59.8561 6.0127 59.791 5.6709C59.3353 3.68522 58.9691 2.15527 58.6924 1.08105L66.6758 0.446289C67.099 2.49707 67.4814 4.49089 67.8232 6.42773H74.6348V13.2637H51.9541ZM105.665 47.4678C104.086 44.6195 102.54 42.0641 101.026 39.8018C107.586 37.9788 113.136 35.5863 117.677 32.624C113.64 28.083 110.475 22.1504 108.18 14.8262H101.466V7.50195H120.387C120.338 7.27409 120.265 6.92415 120.167 6.45215C119.646 3.92936 119.247 2.09017 118.971 0.93457L127.955 0.543945C128.02 0.999674 128.126 1.69141 128.272 2.61914C128.598 4.76758 128.834 6.39518 128.98 7.50195H146.485V14.8262H139.625C137.607 22.1829 134.409 28.1807 130.03 32.8193C134.653 35.749 140.317 37.8649 147.022 39.167C145.265 41.8851 143.653 44.5218 142.188 47.0771C134.669 44.652 128.557 41.7223 123.854 38.2881C119.182 41.641 113.119 44.7008 105.665 47.4678ZM123.854 27.668C127.337 24.1361 129.77 19.8555 131.153 14.8262H116.529C118.108 19.9043 120.549 24.1849 123.854 27.668ZM178.492 47.5166V33.5029H164.356V25.8613H178.492V18H172.975C172.258 20.3763 171.526 22.5898 170.777 24.6406C170.061 24.3802 168.873 23.9652 167.213 23.3955C165.553 22.8258 164.324 22.3945 163.526 22.1016C165.821 16.9909 167.563 10.7816 168.751 3.47363L176.075 4.86523C175.831 6.08594 175.449 7.81934 174.928 10.0654C174.895 10.1631 174.879 10.2363 174.879 10.2852H178.492V0.592773H186.305V10.2852H195.729V18H186.305V25.8613H196.974V33.5029H186.305V47.5166H178.492ZM155.665 47.2236V26.0566C155.551 26.2194 155.38 26.4635 155.152 26.7891C153.85 28.7422 152.841 30.2152 152.125 31.208C151.881 28.2946 151.482 24.5918 150.929 20.0996C152.605 17.4303 154.184 14.2972 155.665 10.7002C157 7.44499 158.139 4.09212 159.083 0.641602L166.383 2.74121C165.374 5.96387 164.243 9.08073 162.989 12.0918V47.2236H155.665ZM205.714 47.7119C205.502 47.4352 205.193 47.0202 204.786 46.4668C203.077 44.1393 201.791 42.4059 200.929 41.2666C204.64 38.7926 207.667 36.4001 210.011 34.0889C208.595 31.5824 207.48 28.4818 206.666 24.7871C205.331 26.8216 204.013 28.6771 202.711 30.3535C202.418 28.5632 201.881 25.9183 201.1 22.4189C200.937 21.6702 200.815 21.1087 200.733 20.7344C202.442 17.8535 203.972 14.6797 205.323 11.2129C206.642 7.84375 207.7 4.41764 208.497 0.93457L216.139 2.15527C215.504 4.64551 214.942 6.6556 214.454 8.18555H225.929C225.473 14.7122 224.83 19.7822 224 23.3955C223.023 27.5785 221.526 31.208 219.508 34.2842C221.135 35.7165 223.064 36.7581 225.294 37.4092C227.491 38.0602 230.152 38.3857 233.277 38.3857C234.547 38.3857 237.151 38.3776 241.09 38.3613C244.378 38.3451 246.469 38.3369 247.364 38.3369C247.332 38.4671 247.275 38.6543 247.193 38.8984C246.314 42.1211 245.68 44.4567 245.289 45.9053C238.974 45.9053 234.775 45.889 232.691 45.8564C228.574 45.7751 225.139 45.3031 222.389 44.4404C219.524 43.529 216.985 42.0641 214.771 40.0459C212.542 42.2594 209.522 44.8148 205.714 47.7119ZM228.297 37.1162V1.12988H235.963V13.3125L237.94 11.6035C240.187 13.8496 243.303 17.1536 247.291 21.5156C247.405 21.6458 247.494 21.7435 247.56 21.8086L241.896 27.1797C241.114 26.252 239.592 24.3477 237.33 21.4668C236.728 20.7018 236.272 20.1322 235.963 19.7578V37.1162H228.297ZM214.674 27.9121C215.618 26.138 216.358 24.1768 216.896 22.0283C217.351 20.1403 217.709 17.8535 217.97 15.168H211.793C211.777 15.2493 211.736 15.3389 211.671 15.4365C211.638 15.5179 211.614 15.5749 211.598 15.6074C212.005 20.653 213.03 24.7546 214.674 27.9121ZM264.869 45.8564V41.8525C262.07 42.3408 258.155 43.1221 253.126 44.1963C252.703 44.2777 252.385 44.3428 252.174 44.3916L251.026 36.5791C253.093 36.3187 254.623 36.1234 255.616 35.9932V25.8613H252.125V18.8301H255.616V9.74805H251.954V2.64355H266.09V9.74805H262.477V18.8301H265.846V25.8613H262.477V34.9678C263.502 34.805 264.739 34.6097 266.188 34.3818C266.122 35.7165 266.09 37.3278 266.09 39.2158H277.613V36.5303H267.237V30.207H277.613V27.5703H267.237V2.05762H295.094V27.5703H284.62V30.207H295.24V36.5303H284.62V39.2158H296.974V45.8564H264.869ZM274.195 21.2715H277.613V17.7559H274.195V21.2715ZM284.62 21.2715H288.136V17.7559H284.62V21.2715ZM274.195 11.8477H277.613V8.42969H274.195V11.8477ZM284.62 11.8477H288.136V8.42969H284.62V11.8477ZM301.686 44.3916V36.4814H319.581V11.8965H304.103V4.01074H343.678V11.8965H328.175V36.4814H346.07V44.3916H301.686ZM355.055 47.6143C354.029 45.2054 353.061 43.0895 352.149 41.2666C356.804 40.5342 361.41 39.5413 365.968 38.2881H351.197V32.0381H355.592V2.30176H392.506V32.0381H396.754V38.2881H381.788C385.597 39.0042 390.235 39.9645 395.704 41.1689L393.043 47.6143C386.76 45.8239 380.95 44.2939 375.611 43.0244L377.735 38.2881H369.825L372.291 42.9756C369.247 43.9521 366.513 44.766 364.088 45.417C361.516 46.1169 358.505 46.8493 355.055 47.6143ZM362.916 32.0381H385.182V29.6211H362.916V32.0381ZM362.916 24.8848H385.182V22.4922H362.916V24.8848ZM362.916 17.7559H385.182V15.4121H362.916V17.7559ZM362.916 10.6758H385.182V8.2832H362.916V10.6758Z" fill="#E1EEFF"/>
</svg>
